<svg xmlns="http://www.w3.org/2000/svg" width="480" height="96" viewBox="0 0 480 96" preserveAspectRatio="xMidYMax meet" fill="#0e1116">
  <!-- tileable Hong Kong-ish skyline silhouette; sits on the baseline -->
  <g>
    <rect x="0" y="58" width="22" height="38"/>
    <rect x="24" y="40" width="16" height="56"/>
    <rect x="42" y="64" width="18" height="32"/>
    <!-- tapered tower -->
    <polygon points="64,96 64,30 72,18 80,30 80,96"/>
    <rect x="84" y="50" width="20" height="46"/>
    <rect x="106" y="36" width="14" height="60"/>
    <rect x="122" y="60" width="22" height="36"/>
    <!-- stepped tower -->
    <polygon points="148,96 148,44 156,44 156,26 164,26 164,12 170,12 170,96"/>
    <rect x="174" y="52" width="18" height="44"/>
    <rect x="194" y="34" width="12" height="62"/>
    <rect x="208" y="62" width="20" height="34"/>
    <rect x="230" y="46" width="16" height="50"/>
    <!-- antenna tower -->
    <rect x="249" y="22" width="10" height="74"/>
    <rect x="252.5" y="6" width="3" height="16"/>
    <rect x="262" y="56" width="20" height="40"/>
    <rect x="284" y="38" width="14" height="58"/>
    <polygon points="300,96 300,28 308,16 316,28 316,96"/>
    <rect x="320" y="54" width="18" height="42"/>
    <rect x="340" y="42" width="22" height="54"/>
    <rect x="364" y="60" width="14" height="36"/>
    <!-- twin slim towers -->
    <rect x="380" y="20" width="9" height="76"/>
    <rect x="392" y="28" width="9" height="68"/>
    <rect x="404" y="56" width="20" height="40"/>
    <rect x="426" y="40" width="14" height="56"/>
    <polygon points="444,96 444,34 452,22 460,34 460,96"/>
    <rect x="464" y="58" width="16" height="38"/>
  </g>
</svg>
